<svg xmlns="http://www.w3.org/2000/svg" viewBox="0 0 24 24"><g><circle cx="9.4" cy="13.6" r="7.2" fill="#2563eb"/><path d="M5.2 8.2c1.8.6 1.4 2.4 0 2.9-1.5.5-1.6 1.9-.6 2.9 1.1 1.1.2 2.6-1.2 2.2-.8-1.9-.7-5.3 1.8-8z" fill="#34d399"/><path d="M11.6 7.1c2 .4 3.7 1.7 4.7 3.4-.8 1.2-2.2 1.1-2.8.2-.5-.8-1.7-.6-2.2-1.5-.4-.8-.6-1.8.3-2.1z" fill="#34d399"/><path d="M9 14.6c1.4-.3 2.8.6 2.6 2-.1 1.2.9 1.7.6 2.9-.3 1.1-1.9 1.5-2.9 1.1-1.2-.5-.8-1.8-1.5-2.6-.8-.8-.3-3.1 1.2-3.4z" fill="#34d399"/><ellipse cx="6.8" cy="9.2" rx="2.3" ry="1.3" fill="#ffffff" opacity=".3" transform="rotate(-28 6.8 9.2)"/><circle cx="19" cy="5.6" r="3.3" fill="#475569"/><path d="M19 2.3a3.3 3.3 0 0 1 0 6.6z" fill="#e2e8f0"/><circle cx="20.1" cy="4.6" r=".6" fill="#cbd5e1"/></g></svg>